<svg width="40" height="40" viewBox="0 0 40 40" fill="none" xmlns="http://www.w3.org/2000/svg">
<path d="M14.0007 28.3334L20.0007 22.3334L26.0007 28.3334L28.334 26L22.334 20L28.334 14L26.0007 11.6667L20.0007 17.6667L14.0007 11.6667L11.6673 14L17.6673 20L11.6673 26L14.0007 28.3334ZM20.0007 36.6667C17.6951 36.6667 15.5284 36.2292 13.5007 35.3542C11.4729 34.4792 9.70898 33.2917 8.20898 31.7917C6.70898 30.2917 5.52148 28.5278 4.64648 26.5C3.77148 24.4723 3.33398 22.3056 3.33398 20C3.33398 17.6945 3.77148 15.5278 4.64648 13.5C5.52148 11.4723 6.70898 9.70837 8.20898 8.20837C9.70898 6.70837 11.4729 5.52087 13.5007 4.64587C15.5284 3.77087 17.6951 3.33337 20.0007 3.33337C22.3062 3.33337 24.4729 3.77087 26.5007 4.64587C28.5284 5.52087 30.2923 6.70837 31.7923 8.20837C33.2923 9.70837 34.4798 11.4723 35.3548 13.5C36.2298 15.5278 36.6673 17.6945 36.6673 20C36.6673 22.3056 36.2298 24.4723 35.3548 26.5C34.4798 28.5278 33.2923 30.2917 31.7923 31.7917C30.2923 33.2917 28.5284 34.4792 26.5007 35.3542C24.4729 36.2292 22.3062 36.6667 20.0007 36.6667ZM20.0007 33.3334C23.7229 33.3334 26.8757 32.0417 29.459 29.4584C32.0423 26.875 33.334 23.7223 33.334 20C33.334 16.2778 32.0423 13.125 29.459 10.5417C26.8757 7.95837 23.7229 6.66671 20.0007 6.66671C16.2784 6.66671 13.1257 7.95837 10.5423 10.5417C7.95898 13.125 6.66732 16.2778 6.66732 20C6.66732 23.7223 7.95898 26.875 10.5423 29.4584C13.1257 32.0417 16.2784 33.3334 20.0007 33.3334Z" fill="#A1A1A1"/>
</svg>
