<svg width="24" height="24" viewBox="0 0 24 24" fill="none" xmlns="http://www.w3.org/2000/svg">
<path d="M19.35 20.9L18.3 19.85L20.125 18H15.6V16.5H20.125L18.3 14.65L19.35 13.6L23 17.25L19.35 20.9ZM4.5 18C4.0875 18 3.73441 17.8531 3.44075 17.5592C3.14691 17.2656 3 16.9125 3 16.5V5.5C3 5.0875 3.14691 4.73434 3.44075 4.4405C3.73441 4.14684 4.0875 4 4.5 4H18.5C18.9125 4 19.2656 4.14684 19.5595 4.4405C19.8531 4.73434 20 5.0875 20 5.5V11.3C19.875 11.2834 19.75 11.2708 19.625 11.2625C19.5 11.2541 19.375 11.25 19.25 11.25C19.1167 11.25 18.9917 11.2541 18.875 11.2625C18.7583 11.2708 18.6333 11.2834 18.5 11.3V6.675L11.4 11.7L4.5 6.7V16.5H13.275C13.2583 16.6333 13.25 16.7458 13.25 16.8375V17.1812C13.25 17.3187 13.2541 17.4562 13.2625 17.5938C13.2708 17.7313 13.2916 17.8667 13.325 18H4.5ZM5.4 5.5L11.4 9.85L17.55 5.5H5.4Z" fill="white"/>
</svg>
